<svg width="42" height="38" viewBox="0 0 42 38" fill="none" xmlns="http://www.w3.org/2000/svg">
<rect width="42" height="38" rx="4" fill="#282828"/>
<path d="M28.6358 29.5824C28.3582 29.86 27.9929 30 27.6299 30C27.2645 30 26.8992 29.86 26.6216 29.5824C26.0664 29.0249 26.0664 28.1257 26.6216 27.5682C29.7604 24.4294 29.7604 19.3238 26.6216 16.1851C23.4852 13.0486 18.3772 13.0486 15.2408 16.1851L14.726 16.6999H18.1234C18.9087 16.6999 19.5469 17.3381 19.5469 18.1234C19.5469 18.911 18.9087 19.5469 18.1234 19.5469H11.4235C10.6382 19.5469 10 18.911 10 18.1234V11.4235C10 10.6382 10.6382 10 11.4235 10C12.2088 10 12.847 10.6382 12.847 11.4235V14.5528L13.2266 14.1732C17.4757 9.92408 24.3867 9.92408 28.6358 14.1732C32.8849 18.4223 32.8849 25.3333 28.6358 29.5824Z" fill="#639EFF"/>
</svg>
