<svg width="42" height="38" viewBox="0 0 42 38" fill="none" xmlns="http://www.w3.org/2000/svg">
<rect x="4.57764e-05" width="42" height="38" rx="4" fill="#282828"/>
<path d="M30.5652 9.07849H11.4348C10.6433 9.07849 10 9.72175 10 10.5133V27.4868C10 28.2783 10.6433 28.9215 11.4348 28.9215H30.5652C31.3567 28.9215 32 28.2783 32 27.4868V10.5133C32 9.72175 31.3567 9.07849 30.5652 9.07849ZM29.1304 26.052H12.8696V25.3274L15.9496 22.2474L17.3867 23.6822C17.9463 24.2441 18.855 24.2441 19.4146 23.6846L25.0843 18.0148L29.1304 22.0609V26.052ZM29.1304 18.0052L26.0983 14.9707C25.5363 14.4111 24.63 14.4111 24.068 14.9707L18.4007 20.6404L16.9635 19.2033C16.4039 18.6437 15.4952 18.6437 14.9357 19.2033L12.8696 21.2694V11.9481H29.1304V18.0052Z" fill="#639EFF"/>
<path d="M17.7591 17.2558C16.765 17.2558 15.9563 16.447 15.9563 15.453C15.9563 14.4589 16.765 13.6502 17.7591 13.6502C18.7531 13.6502 19.5619 14.4589 19.5619 15.453C19.5619 16.447 18.7531 17.2558 17.7591 17.2558Z" fill="#639EFF"/>
</svg>
