<svg width="42" height="38" viewBox="0 0 42 38" fill="none" xmlns="http://www.w3.org/2000/svg">
<rect width="42" height="38" rx="4" fill="#282828"/>
<path d="M20.4876 14.7416V16.0604C20.4876 16.9872 19.7344 17.7404 18.8076 17.7404C18.004 17.7404 17.332 17.1748 17.1668 16.4216H16.0048V23.5868C16.8476 23.6792 17.5056 24.3932 17.5056 25.2584C17.5056 26.188 16.7524 26.9384 15.8256 26.9384H12.824C11.8944 26.9384 11.144 26.188 11.144 25.2584C11.144 24.3932 11.7992 23.6792 12.6448 23.5868V16.4216H11.48C11.3148 17.1748 10.6428 17.7404 9.8392 17.7404C8.9124 17.7404 8.15919 16.9872 8.15919 16.0604V14.7416C8.15919 13.812 8.9124 13.0616 9.8392 13.0616H18.8076C19.7344 13.0616 20.4876 13.812 20.4876 14.7416Z" fill="#639EFF"/>
<path d="M33.9192 14.7416V16.0604C33.9192 16.9872 33.1688 17.7404 32.2392 17.7404C31.4356 17.7404 30.7636 17.1748 30.5984 16.4216H29.4364V23.5868C30.2792 23.6792 30.9372 24.3932 30.9372 25.2584C30.9372 26.188 30.184 26.9384 29.2572 26.9384H26.2556C25.326 26.9384 24.5756 26.188 24.5756 25.2584C24.5756 24.3932 25.2308 23.6792 26.0764 23.5868V16.4216H24.9144C24.7492 17.1748 24.0772 17.7404 23.2708 17.7404C22.344 17.7404 21.5908 16.9872 21.5908 16.0604V14.7416C21.5908 13.812 22.344 13.0616 23.2708 13.0616H32.2392C33.1688 13.0616 33.9192 13.812 33.9192 14.7416Z" fill="#639EFF"/>
</svg>
