<svg width="42" height="38" viewBox="0 0 42 38" fill="none" xmlns="http://www.w3.org/2000/svg">
<rect width="42" height="38" rx="4" fill="#282828"/>
<path d="M31 9.5V12.0075C31 12.8375 30.3317 13.5075 29.5037 13.5075C28.6783 13.5075 28.0075 12.8375 28.0075 12.0075V11H22.4963V28H23.8454C24.6733 28 25.3416 28.6725 25.3416 29.5C25.3416 30.3275 24.6733 31 23.8454 31H18.1546C17.3267 31 16.6584 30.3275 16.6584 29.5C16.6584 28.6725 17.3267 28 18.1546 28H19.5037V11H13.9925V12.0075C13.9925 12.8375 13.3217 13.5075 12.4963 13.5075C11.6683 13.5075 11 12.8375 11 12.0075V9.5C11 8.6725 11.6683 8 12.4963 8H29.5037C30.3317 8 31 8.6725 31 9.5Z" fill="#639EFF"/>
</svg>
