<svg width="42" height="38" viewBox="0 0 42 38" fill="none" xmlns="http://www.w3.org/2000/svg">
<rect width="42" height="38" rx="4" fill="#282828"/>
<path d="M13.1868 29.5824C13.4644 29.86 13.8298 30 14.1928 30C14.5581 30 14.9235 29.86 15.2011 29.5824C15.7562 29.0249 15.7562 28.1257 15.2011 27.5682C12.0623 24.4294 12.0623 19.3238 15.2011 16.1851C18.3375 13.0486 23.4454 13.0486 26.5819 16.1851L27.0967 16.6999H23.6993C22.914 16.6999 22.2758 17.3381 22.2758 18.1234C22.2758 18.911 22.914 19.5469 23.6993 19.5469H30.3992C31.1845 19.5469 31.8227 18.911 31.8227 18.1234V11.4235C31.8227 10.6382 31.1845 10 30.3992 10C29.6139 10 28.9757 10.6382 28.9757 11.4235V14.5528L28.5961 14.1732C24.347 9.92408 17.4359 9.92408 13.1868 14.1732C8.93773 18.4223 8.93773 25.3333 13.1868 29.5824Z" fill="#639EFF"/>
</svg>
